# Blender v2.69 (sub 0) OBJ File: ''
# www.blender.org
mtllib ico.mtl
o Icosphere
v -1.126733 -1.697564 -0.374161
v -0.403133 -1.144779 0.151559
v -1.403118 -1.144779 0.476479
v -2.021158 -1.144779 -0.374161
v -1.403118 -1.144779 -1.224801
v -0.403133 -1.144779 -0.899881
v -0.850348 -0.250349 0.476479
v -1.850333 -0.250349 0.151559
v -1.850333 -0.250349 -0.899881
v -0.850348 -0.250349 -1.224801
v -0.232308 -0.250349 -0.374161
v -1.126733 0.302436 -0.374161
vt 0.999996 0.239281
vt 0.810831 0.092753
vt 0.999996 0.043912
vt 0.621664 0.000003
vt 0.621664 0.239281
vt 0.414445 0.119640
vt 0.603613 0.869302
vt 0.414448 0.820460
vt 0.603613 0.673930
vt 0.207223 0.869303
vt 0.018055 0.820460
vt 0.207223 0.673933
vt 0.792781 0.527403
vt 0.981947 0.478561
vt 0.981947 0.673930
vt 0.621664 0.190433
vt 0.810831 0.043910
vt 0.810831 0.239281
vt 0.792781 0.673930
vt 0.603613 0.625088
vt 0.792781 0.478557
vt 0.207223 0.239280
vt 0.000000 0.119642
vt 0.207223 0.000000
vt 0.414445 0.239281
vt 0.207223 0.119641
vt 0.414445 0.000000
vt 0.414446 0.527399
vt 0.603613 0.478557
vt 0.414446 0.239281
vt 0.414446 0.478561
vt 0.207223 0.358923
vt 0.207223 0.478560
vt 0.018056 0.625091
vt 0.810834 0.283185
vt 0.810834 0.478557
vt 0.621668 0.332034
vt 0.414446 0.717843
vt 0.259991 0.598204
vt 0.000000 0.358918
vt 0.414446 0.913212
vt 0.225278 0.766685
vt 1.000000 0.283188
vt 1.000000 0.478557
vt 0.810834 0.429715
vt 0.621668 0.239281
vt 0.621668 0.478557
vt 0.414446 0.358919
vt 0.792779 0.793569
vt 0.947232 0.673930
vt 0.947232 0.913208
vt 0.792779 0.869302
vt 0.603613 0.722772
vt 0.792779 0.673930
vn 0.187597 -0.794651 0.577354
vn 0.607065 -0.794652 0.000000
vn -0.491122 -0.794652 0.356829
vn -0.491122 -0.794652 -0.356829
vn 0.187597 -0.794651 -0.577354
vn 0.982246 -0.187597 0.000000
vn 0.303536 -0.187589 0.934172
vn -0.794649 -0.187587 0.577359
vn -0.794649 -0.187587 -0.577359
vn 0.303536 -0.187589 -0.934172
vn 0.794649 0.187587 0.577359
vn -0.303536 0.187589 0.934171
vn -0.982246 0.187597 0.000000
vn -0.303536 0.187589 -0.934171
vn 0.794649 0.187587 -0.577359
vn 0.491122 0.794652 0.356829
vn -0.187597 0.794651 0.577354
vn -0.607065 0.794652 0.000000
vn -0.187597 0.794651 -0.577354
vn 0.491122 0.794652 -0.356829
usemtl None
s off
f 1/1/1 2/2/1 3/3/1
f 2/4/2 1/5/2 6/6/2
f 1/7/3 3/8/3 4/9/3
f 1/10/4 4/11/4 5/12/4
f 1/13/5 5/14/5 6/15/5
f 2/16/6 6/17/6 11/18/6
f 3/19/7 2/20/7 7/21/7
f 4/22/8 3/23/8 8/24/8
f 5/25/9 4/26/9 9/27/9
f 6/28/10 5/29/10 10/9/10
f 2/30/11 11/31/11 7/32/11
f 3/33/12 7/12/12 8/34/12
f 4/35/13 8/36/13 9/37/13
f 5/31/14 9/38/14 10/39/14
f 6/33/15 10/40/15 11/22/15
f 7/41/16 11/42/16 12/38/16
f 8/43/17 7/44/17 12/45/17
f 9/46/18 8/47/18 12/48/18
f 10/49/19 9/50/19 12/51/19
f 11/52/20 10/53/20 12/54/20
